  0
SECTION
  2
HEADER
  9
$ACADVER
  1
AC1014
  9
$HANDSEED
  5
FFFF
  9
$MEASUREMENT
 70
     1
  0
ENDSEC
  0
SECTION
  2
TABLES
  0
TABLE
  2
VPORT
  5
8
330
0
100
AcDbSymbolTable
 70
     4
  0
VPORT
  5
2E
330
8
100
AcDbSymbolTableRecord
100
AcDbViewportTableRecord
  2
*ACTIVE
 70
     0
 10
0.0
 20
0.0
 11
1.0
 21
1.0
 12
210.0
 22
148.5
 13
0.0
 23
0.0
 14
10.0
 24
10.0
 15
10.0
 25
10.0
 16
0.0
 26
0.0
 36
1.0
 17
0.0
 27
0.0
 37
0.0
 40
341.0
 41
1.24
 42
50.0
 43
0.0
 44
0.0
 50
0.0
 51
0.0
 71
     0
 72
   100
 73
     1
 74
     3
 75
     0
 76
     0
 77
     0
 78
     0
  0
ENDTAB
  0
TABLE
  2
LTYPE
  5
5
330
0
100
AcDbSymbolTable
 70
     1
  0
LTYPE
  5
14
330
5
100
AcDbSymbolTableRecord
100
AcDbLinetypeTableRecord
  2
BYBLOCK
 70
     0
  3

 72
    65
 73
     0
 40
0.0
  0
LTYPE
  5
15
330
5
100
AcDbSymbolTableRecord
100
AcDbLinetypeTableRecord
  2
BYLAYER
 70
     0
  3

 72
    65
 73
     0
 40
0.0
  0
LTYPE
  5
16
330
5
100
AcDbSymbolTableRecord
100
AcDbLinetypeTableRecord
  2
CONTINUOUS
 70
     0
  3
Solid line
 72
    65
 73
     0
 40
0.0
  0
ENDTAB
  0
TABLE
  2
LAYER
  5
2
100
AcDbSymbolTable
 70
2
  0
LAYER
  5
50
100
AcDbSymbolTableRecord
100
AcDbLayerTableRecord
  2
0
 70
0
  6
CONTINUOUS
  0
LAYER
  5
51
100
AcDbSymbolTableRecord
100
AcDbLayerTableRecord
  2
Layer_1
 70
0
  6
CONTINUOUS
  0
ENDTAB
  0
TABLE
  2
STYLE
  5
3
330
0
100
AcDbSymbolTable
 70
     1
  0
STYLE
  5
11
330
3
100
AcDbSymbolTableRecord
100
AcDbTextStyleTableRecord
  2
STANDARD
 70
     0
 40
0.0
 41
1.0
 50
0.0
 71
     0
 42
2.5
  3
txt
  4

  0
ENDTAB
  0
TABLE
  2
VIEW
  5
6
330
0
100
AcDbSymbolTable
 70
     0
  0
ENDTAB
  0
TABLE
  2
UCS
  5
7
330
0
100
AcDbSymbolTable
 70
     0
  0
ENDTAB
  0
TABLE
  2
APPID
  5
9
330
0
100
AcDbSymbolTable
 70
     2
  0
APPID
  5
12
330
9
100
AcDbSymbolTableRecord
100
AcDbRegAppTableRecord
  2
ACAD
 70
     0
  0
ENDTAB
  0
TABLE
  2
DIMSTYLE
  5
A
330
0
100
AcDbSymbolTable
 70
     1
  0
DIMSTYLE
105
27
330
A
100
AcDbSymbolTableRecord
100
AcDbDimStyleTableRecord
  2
ISO-25
 70
     0
  3

  4

  5

  6

  7

 40
1.0
 41
2.5
 42
0.625
 43
3.75
 44
1.25
 45
0.0
 46
0.0
 47
0.0
 48
0.0
140
2.5
141
2.5
142
0.0
143
0.03937007874016
144
1.0
145
0.0
146
1.0
147
0.625
 71
     0
 72
     0
 73
     0
 74
     0
 75
     0
 76
     0
 77
     1
 78
     8
170
     0
171
     3
172
     1
173
     0
174
     0
175
     0
176
     0
177
     0
178
     0
270
     2
271
     2
272
     2
273
     2
274
     3
340
11
275
     0
280
     0
281
     0
282
     0
283
     0
284
     8
285
     0
286
     0
287
     3
288
     0
  0
ENDTAB
  0
TABLE
  2
BLOCK_RECORD
  5
1
330
0
100
AcDbSymbolTable
 70
     1
  0
BLOCK_RECORD
  5
1F
330
1
100
AcDbSymbolTableRecord
100
AcDbBlockTableRecord
  2
*MODEL_SPACE
  0
BLOCK_RECORD
  5
1B
330
1
100
AcDbSymbolTableRecord
100
AcDbBlockTableRecord
  2
*PAPER_SPACE
  0
ENDTAB
  0
ENDSEC
  0
SECTION
  2
BLOCKS
  0
BLOCK
  5
20
330
1F
100
AcDbEntity
  8
0
100
AcDbBlockBegin
  2
*MODEL_SPACE
 70
     0
 10
0.0
 20
0.0
 30
0.0
  3
*MODEL_SPACE
  1

  0
ENDBLK
  5
21
330
1F
100
AcDbEntity
  8
0
100
AcDbBlockEnd
  0
BLOCK
  5
1C
330
1B
100
AcDbEntity
 67
     1
  8
0
100
AcDbBlockBegin
  2
*PAPER_SPACE
  1

  0
ENDBLK
  5
1D
330
1B
100
AcDbEntity
 67
     1
  8
0
100
AcDbBlockEnd
  0
ENDSEC
  0
SECTION
  2
ENTITIES
  0
LINE
  5
100
100
AcDbEntity
  8
Layer_1
 62
7
100
AcDbLine
 10
26.990606
 20
43.545903
 30
0.0
 11
26.990606
 21
45.771041
 31
0.0
  0
LINE
  5
101
100
AcDbEntity
  8
Layer_1
 62
7
100
AcDbLine
 10
26.990606
 20
45.771041
 30
0.0
 11
23.584147
 21
45.771041
 31
0.0
  0
LINE
  5
102
100
AcDbEntity
  8
Layer_1
 62
7
100
AcDbLine
 10
23.584147
 20
45.771041
 30
0.0
 11
22.880977
 21
45.067874
 31
0.0
  0
LINE
  5
103
100
AcDbEntity
  8
Layer_1
 62
7
100
AcDbLine
 10
22.880977
 20
45.067874
 30
0.0
 11
22.880977
 21
44.264696
 31
0.0
  0
LINE
  5
104
100
AcDbEntity
  8
Layer_1
 62
7
100
AcDbLine
 10
22.880977
 20
44.264696
 30
0.0
 11
23.585709
 21
43.559968
 31
0.0
  0
LINE
  5
105
100
AcDbEntity
  8
Layer_1
 62
7
100
AcDbLine
 10
23.585709
 20
43.559968
 30
0.0
 11
26.990606
 21
43.545903
 31
0.0
  0
LINE
  5
106
100
AcDbEntity
  8
Layer_1
 62
7
100
AcDbLine
 10
26.990606
 20
43.545903
 30
0.0
 11
26.990606
 21
45.771041
 31
0.0
  0
LINE
  5
107
100
AcDbEntity
  8
Layer_1
 62
7
100
AcDbLine
 10
26.990606
 20
45.771041
 30
0.0
 11
23.584147
 21
45.771041
 31
0.0
  0
LINE
  5
108
100
AcDbEntity
  8
Layer_1
 62
7
100
AcDbLine
 10
23.584147
 20
45.771041
 30
0.0
 11
22.880977
 21
45.067874
 31
0.0
  0
LINE
  5
109
100
AcDbEntity
  8
Layer_1
 62
7
100
AcDbLine
 10
22.880977
 20
45.067874
 30
0.0
 11
22.880977
 21
44.264696
 31
0.0
  0
LINE
  5
10a
100
AcDbEntity
  8
Layer_1
 62
7
100
AcDbLine
 10
22.880977
 20
44.264696
 30
0.0
 11
23.585709
 21
43.559968
 31
0.0
  0
LINE
  5
10b
100
AcDbEntity
  8
Layer_1
 62
7
100
AcDbLine
 10
23.585709
 20
43.559968
 30
0.0
 11
26.990606
 21
43.545903
 31
0.0
  0
LINE
  5
10c
100
AcDbEntity
  8
Layer_1
 62
7
100
AcDbLine
 10
26.986344
 20
38.169120
 30
0.0
 11
26.986344
 21
40.394258
 31
0.0
  0
LINE
  5
10d
100
AcDbEntity
  8
Layer_1
 62
7
100
AcDbLine
 10
26.986344
 20
40.394258
 30
0.0
 11
23.579881
 21
40.394258
 31
0.0
  0
LINE
  5
10e
100
AcDbEntity
  8
Layer_1
 62
7
100
AcDbLine
 10
23.579881
 20
40.394258
 30
0.0
 11
22.876712
 21
39.691090
 31
0.0
  0
LINE
  5
10f
100
AcDbEntity
  8
Layer_1
 62
7
100
AcDbLine
 10
22.876712
 20
39.691090
 30
0.0
 11
22.876712
 21
38.887913
 31
0.0
  0
LINE
  5
110
100
AcDbEntity
  8
Layer_1
 62
7
100
AcDbLine
 10
22.876712
 20
38.887913
 30
0.0
 11
23.581444
 21
38.183185
 31
0.0
  0
LINE
  5
111
100
AcDbEntity
  8
Layer_1
 62
7
100
AcDbLine
 10
23.581444
 20
38.183185
 30
0.0
 11
26.986344
 21
38.169120
 31
0.0
  0
LINE
  5
112
100
AcDbEntity
  8
Layer_1
 62
7
100
AcDbLine
 10
26.995297
 20
32.801560
 30
0.0
 11
26.995297
 21
35.026698
 31
0.0
  0
LINE
  5
113
100
AcDbEntity
  8
Layer_1
 62
7
100
AcDbLine
 10
26.995297
 20
35.026698
 30
0.0
 11
23.588833
 21
35.026698
 31
0.0
  0
LINE
  5
114
100
AcDbEntity
  8
Layer_1
 62
7
100
AcDbLine
 10
23.588833
 20
35.026698
 30
0.0
 11
22.885664
 21
34.323531
 31
0.0
  0
LINE
  5
115
100
AcDbEntity
  8
Layer_1
 62
7
100
AcDbLine
 10
22.885664
 20
34.323531
 30
0.0
 11
22.885664
 21
33.520354
 31
0.0
  0
LINE
  5
116
100
AcDbEntity
  8
Layer_1
 62
7
100
AcDbLine
 10
22.885664
 20
33.520354
 30
0.0
 11
23.590396
 21
32.815625
 31
0.0
  0
LINE
  5
117
100
AcDbEntity
  8
Layer_1
 62
7
100
AcDbLine
 10
23.590396
 20
32.815625
 30
0.0
 11
26.995297
 21
32.801560
 31
0.0
  0
LINE
  5
118
100
AcDbEntity
  8
Layer_1
 62
7
100
AcDbLine
 10
28.582324
 20
45.779687
 30
0.0
 11
28.582324
 21
43.554549
 31
0.0
  0
LINE
  5
119
100
AcDbEntity
  8
Layer_1
 62
7
100
AcDbLine
 10
28.582324
 20
43.554549
 30
0.0
 11
31.988784
 21
43.554549
 31
0.0
  0
LINE
  5
11a
100
AcDbEntity
  8
Layer_1
 62
7
100
AcDbLine
 10
31.988784
 20
43.554549
 30
0.0
 11
32.691951
 21
44.257717
 31
0.0
  0
LINE
  5
11b
100
AcDbEntity
  8
Layer_1
 62
7
100
AcDbLine
 10
32.691951
 20
44.257717
 30
0.0
 11
32.691951
 21
45.060894
 31
0.0
  0
LINE
  5
11c
100
AcDbEntity
  8
Layer_1
 62
7
100
AcDbLine
 10
32.691951
 20
45.060894
 30
0.0
 11
31.987220
 21
45.765622
 31
0.0
  0
LINE
  5
11d
100
AcDbEntity
  8
Layer_1
 62
7
100
AcDbLine
 10
31.987220
 20
45.765622
 30
0.0
 11
28.582324
 21
45.779687
 31
0.0
  0
LINE
  5
11e
100
AcDbEntity
  8
Layer_1
 62
7
100
AcDbLine
 10
28.582324
 20
45.779687
 30
0.0
 11
28.582324
 21
43.554549
 31
0.0
  0
LINE
  5
11f
100
AcDbEntity
  8
Layer_1
 62
7
100
AcDbLine
 10
28.582324
 20
43.554549
 30
0.0
 11
31.988784
 21
43.554549
 31
0.0
  0
LINE
  5
120
100
AcDbEntity
  8
Layer_1
 62
7
100
AcDbLine
 10
31.988784
 20
43.554549
 30
0.0
 11
32.691951
 21
44.257717
 31
0.0
  0
LINE
  5
121
100
AcDbEntity
  8
Layer_1
 62
7
100
AcDbLine
 10
32.691951
 20
44.257717
 30
0.0
 11
32.691951
 21
45.060894
 31
0.0
  0
LINE
  5
122
100
AcDbEntity
  8
Layer_1
 62
7
100
AcDbLine
 10
32.691951
 20
45.060894
 30
0.0
 11
31.987220
 21
45.765622
 31
0.0
  0
LINE
  5
123
100
AcDbEntity
  8
Layer_1
 62
7
100
AcDbLine
 10
31.987220
 20
45.765622
 30
0.0
 11
28.582324
 21
45.779687
 31
0.0
  0
LINE
  5
124
100
AcDbEntity
  8
Layer_1
 62
7
100
AcDbLine
 10
28.578059
 20
40.402902
 30
0.0
 11
28.578059
 21
38.177761
 31
0.0
  0
LINE
  5
125
100
AcDbEntity
  8
Layer_1
 62
7
100
AcDbLine
 10
28.578059
 20
38.177761
 30
0.0
 11
31.984521
 21
38.177761
 31
0.0
  0
LINE
  5
126
100
AcDbEntity
  8
Layer_1
 62
7
100
AcDbLine
 10
31.984521
 20
38.177761
 30
0.0
 11
32.687689
 21
38.880928
 31
0.0
  0
LINE
  5
127
100
AcDbEntity
  8
Layer_1
 62
7
100
AcDbLine
 10
32.687689
 20
38.880928
 30
0.0
 11
32.687689
 21
39.684108
 31
0.0
  0
LINE
  5
128
100
AcDbEntity
  8
Layer_1
 62
7
100
AcDbLine
 10
32.687689
 20
39.684108
 30
0.0
 11
31.982958
 21
40.388834
 31
0.0
  0
LINE
  5
129
100
AcDbEntity
  8
Layer_1
 62
7
100
AcDbLine
 10
31.982958
 20
40.388834
 30
0.0
 11
28.578059
 21
40.402902
 31
0.0
  0
LINE
  5
12a
100
AcDbEntity
  8
Layer_1
 62
7
100
AcDbLine
 10
28.587009
 20
35.035342
 30
0.0
 11
28.587009
 21
32.810204
 31
0.0
  0
LINE
  5
12b
100
AcDbEntity
  8
Layer_1
 62
7
100
AcDbLine
 10
28.587009
 20
32.810204
 30
0.0
 11
31.993472
 21
32.810204
 31
0.0
  0
LINE
  5
12c
100
AcDbEntity
  8
Layer_1
 62
7
100
AcDbLine
 10
31.993472
 20
32.810204
 30
0.0
 11
32.696642
 21
33.513371
 31
0.0
  0
LINE
  5
12d
100
AcDbEntity
  8
Layer_1
 62
7
100
AcDbLine
 10
32.696642
 20
33.513371
 30
0.0
 11
32.696642
 21
34.316548
 31
0.0
  0
LINE
  5
12e
100
AcDbEntity
  8
Layer_1
 62
7
100
AcDbLine
 10
32.696642
 20
34.316548
 30
0.0
 11
31.991911
 21
35.021277
 31
0.0
  0
LINE
  5
12f
100
AcDbEntity
  8
Layer_1
 62
7
100
AcDbLine
 10
31.991911
 20
35.021277
 30
0.0
 11
28.587009
 21
35.035342
 31
0.0
  0
SPLINE
  5
130
100
AcDbEntity
  8
Layer_1
 62
7
100
AcDbSpline
 70
8
 71
3
 72
8
 73
4
 74
0
 40
0
 40
0
 40
0
 40
0
 40
1
 40
1
 40
1
 40
1
 10
22.517312
 20
39.284558
 30
0.0
 10
22.517312
 20
39.065518
 30
0.0
 10
22.400455
 20
38.863117
 30
0.0
 10
22.210761
 20
38.753597
 30
0.0
  0
SPLINE
  5
131
100
AcDbEntity
  8
Layer_1
 62
7
100
AcDbSpline
 70
8
 71
3
 72
8
 73
4
 74
0
 40
0
 40
0
 40
0
 40
0
 40
1
 40
1
 40
1
 40
1
 10
22.210761
 20
38.753597
 30
0.0
 10
22.021067
 20
38.644077
 30
0.0
 10
21.787354
 20
38.644077
 30
0.0
 10
21.597660
 20
38.753597
 30
0.0
  0
SPLINE
  5
132
100
AcDbEntity
  8
Layer_1
 62
7
100
AcDbSpline
 70
8
 71
3
 72
8
 73
4
 74
0
 40
0
 40
0
 40
0
 40
0
 40
1
 40
1
 40
1
 40
1
 10
21.597660
 20
38.753597
 30
0.0
 10
21.407966
 20
38.863117
 30
0.0
 10
21.291109
 20
39.065518
 30
0.0
 10
21.291109
 20
39.284558
 30
0.0
  0
SPLINE
  5
133
100
AcDbEntity
  8
Layer_1
 62
7
100
AcDbSpline
 70
8
 71
3
 72
8
 73
4
 74
0
 40
0
 40
0
 40
0
 40
0
 40
1
 40
1
 40
1
 40
1
 10
21.291109
 20
39.284558
 30
0.0
 10
21.291109
 20
39.503598
 30
0.0
 10
21.407966
 20
39.705999
 30
0.0
 10
21.597660
 20
39.815519
 30
0.0
  0
SPLINE
  5
134
100
AcDbEntity
  8
Layer_1
 62
7
100
AcDbSpline
 70
8
 71
3
 72
8
 73
4
 74
0
 40
0
 40
0
 40
0
 40
0
 40
1
 40
1
 40
1
 40
1
 10
21.597660
 20
39.815519
 30
0.0
 10
21.787354
 20
39.925039
 30
0.0
 10
22.021067
 20
39.925039
 30
0.0
 10
22.210761
 20
39.815519
 30
0.0
  0
SPLINE
  5
135
100
AcDbEntity
  8
Layer_1
 62
7
100
AcDbSpline
 70
8
 71
3
 72
8
 73
4
 74
0
 40
0
 40
0
 40
0
 40
0
 40
1
 40
1
 40
1
 40
1
 10
22.210761
 20
39.815519
 30
0.0
 10
22.400455
 20
39.705999
 30
0.0
 10
22.517312
 20
39.503598
 30
0.0
 10
22.517312
 20
39.284558
 30
0.0
  0
LINE
  5
136
100
AcDbEntity
  8
Layer_1
 62
7
100
AcDbLine
 10
22.517312
 20
39.284558
 30
0.0
 11
22.517312
 21
39.284558
 31
0.0
  0
SPLINE
  5
137
100
AcDbEntity
  8
Layer_1
 62
7
100
AcDbSpline
 70
8
 71
3
 72
8
 73
4
 74
0
 40
0
 40
0
 40
0
 40
0
 40
1
 40
1
 40
1
 40
1
 10
22.512721
 20
33.916109
 30
0.0
 10
22.512721
 20
33.697069
 30
0.0
 10
22.395865
 20
33.494668
 30
0.0
 10
22.206171
 20
33.385148
 30
0.0
  0
SPLINE
  5
138
100
AcDbEntity
  8
Layer_1
 62
7
100
AcDbSpline
 70
8
 71
3
 72
8
 73
4
 74
0
 40
0
 40
0
 40
0
 40
0
 40
1
 40
1
 40
1
 40
1
 10
22.206171
 20
33.385148
 30
0.0
 10
22.016477
 20
33.275628
 30
0.0
 10
21.782764
 20
33.275628
 30
0.0
 10
21.593070
 20
33.385148
 30
0.0
  0
SPLINE
  5
139
100
AcDbEntity
  8
Layer_1
 62
7
100
AcDbSpline
 70
8
 71
3
 72
8
 73
4
 74
0
 40
0
 40
0
 40
0
 40
0
 40
1
 40
1
 40
1
 40
1
 10
21.593070
 20
33.385148
 30
0.0
 10
21.403376
 20
33.494668
 30
0.0
 10
21.286519
 20
33.697069
 30
0.0
 10
21.286519
 20
33.916109
 30
0.0
  0
SPLINE
  5
13a
100
AcDbEntity
  8
Layer_1
 62
7
100
AcDbSpline
 70
8
 71
3
 72
8
 73
4
 74
0
 40
0
 40
0
 40
0
 40
0
 40
1
 40
1
 40
1
 40
1
 10
21.286519
 20
33.916109
 30
0.0
 10
21.286519
 20
34.135149
 30
0.0
 10
21.403376
 20
34.337550
 30
0.0
 10
21.593070
 20
34.447070
 30
0.0
  0
SPLINE
  5
13b
100
AcDbEntity
  8
Layer_1
 62
7
100
AcDbSpline
 70
8
 71
3
 72
8
 73
4
 74
0
 40
0
 40
0
 40
0
 40
0
 40
1
 40
1
 40
1
 40
1
 10
21.593070
 20
34.447070
 30
0.0
 10
21.782764
 20
34.556590
 30
0.0
 10
22.016477
 20
34.556590
 30
0.0
 10
22.206171
 20
34.447070
 30
0.0
  0
SPLINE
  5
13c
100
AcDbEntity
  8
Layer_1
 62
7
100
AcDbSpline
 70
8
 71
3
 72
8
 73
4
 74
0
 40
0
 40
0
 40
0
 40
0
 40
1
 40
1
 40
1
 40
1
 10
22.206171
 20
34.447070
 30
0.0
 10
22.395865
 20
34.337550
 30
0.0
 10
22.512721
 20
34.135149
 30
0.0
 10
22.512721
 20
33.916109
 30
0.0
  0
LINE
  5
13d
100
AcDbEntity
  8
Layer_1
 62
7
100
AcDbLine
 10
22.512721
 20
33.916109
 30
0.0
 11
22.512721
 21
33.916109
 31
0.0
  0
SPLINE
  5
13e
100
AcDbEntity
  8
Layer_1
 62
7
100
AcDbSpline
 70
8
 71
3
 72
8
 73
4
 74
0
 40
0
 40
0
 40
0
 40
0
 40
1
 40
1
 40
1
 40
1
 10
34.275980
 20
39.291437
 30
0.0
 10
34.275980
 20
39.072397
 30
0.0
 10
34.159124
 20
38.869996
 30
0.0
 10
33.969430
 20
38.760476
 30
0.0
  0
SPLINE
  5
13f
100
AcDbEntity
  8
Layer_1
 62
7
100
AcDbSpline
 70
8
 71
3
 72
8
 73
4
 74
0
 40
0
 40
0
 40
0
 40
0
 40
1
 40
1
 40
1
 40
1
 10
33.969430
 20
38.760476
 30
0.0
 10
33.779736
 20
38.650956
 30
0.0
 10
33.546023
 20
38.650956
 30
0.0
 10
33.356329
 20
38.760476
 30
0.0
  0
SPLINE
  5
140
100
AcDbEntity
  8
Layer_1
 62
7
100
AcDbSpline
 70
8
 71
3
 72
8
 73
4
 74
0
 40
0
 40
0
 40
0
 40
0
 40
1
 40
1
 40
1
 40
1
 10
33.356329
 20
38.760476
 30
0.0
 10
33.166635
 20
38.869996
 30
0.0
 10
33.049778
 20
39.072397
 30
0.0
 10
33.049778
 20
39.291437
 30
0.0
  0
SPLINE
  5
141
100
AcDbEntity
  8
Layer_1
 62
7
100
AcDbSpline
 70
8
 71
3
 72
8
 73
4
 74
0
 40
0
 40
0
 40
0
 40
0
 40
1
 40
1
 40
1
 40
1
 10
33.049778
 20
39.291437
 30
0.0
 10
33.049778
 20
39.510477
 30
0.0
 10
33.166635
 20
39.712878
 30
0.0
 10
33.356329
 20
39.822398
 30
0.0
  0
SPLINE
  5
142
100
AcDbEntity
  8
Layer_1
 62
7
100
AcDbSpline
 70
8
 71
3
 72
8
 73
4
 74
0
 40
0
 40
0
 40
0
 40
0
 40
1
 40
1
 40
1
 40
1
 10
33.356329
 20
39.822398
 30
0.0
 10
33.546023
 20
39.931918
 30
0.0
 10
33.779736
 20
39.931918
 30
0.0
 10
33.969430
 20
39.822398
 30
0.0
  0
SPLINE
  5
143
100
AcDbEntity
  8
Layer_1
 62
7
100
AcDbSpline
 70
8
 71
3
 72
8
 73
4
 74
0
 40
0
 40
0
 40
0
 40
0
 40
1
 40
1
 40
1
 40
1
 10
33.969430
 20
39.822398
 30
0.0
 10
34.159124
 20
39.712878
 30
0.0
 10
34.275980
 20
39.510477
 30
0.0
 10
34.275980
 20
39.291437
 30
0.0
  0
LINE
  5
144
100
AcDbEntity
  8
Layer_1
 62
7
100
AcDbLine
 10
34.275980
 20
39.291437
 30
0.0
 11
34.275980
 21
39.291437
 31
0.0
  0
SPLINE
  5
145
100
AcDbEntity
  8
Layer_1
 62
7
100
AcDbSpline
 70
8
 71
3
 72
8
 73
4
 74
0
 40
0
 40
0
 40
0
 40
0
 40
1
 40
1
 40
1
 40
1
 10
34.271390
 20
33.922991
 30
0.0
 10
34.271390
 20
33.703951
 30
0.0
 10
34.154533
 20
33.501550
 30
0.0
 10
33.964839
 20
33.392030
 30
0.0
  0
SPLINE
  5
146
100
AcDbEntity
  8
Layer_1
 62
7
100
AcDbSpline
 70
8
 71
3
 72
8
 73
4
 74
0
 40
0
 40
0
 40
0
 40
0
 40
1
 40
1
 40
1
 40
1
 10
33.964839
 20
33.392030
 30
0.0
 10
33.775145
 20
33.282510
 30
0.0
 10
33.541432
 20
33.282510
 30
0.0
 10
33.351738
 20
33.392030
 30
0.0
  0
SPLINE
  5
147
100
AcDbEntity
  8
Layer_1
 62
7
100
AcDbSpline
 70
8
 71
3
 72
8
 73
4
 74
0
 40
0
 40
0
 40
0
 40
0
 40
1
 40
1
 40
1
 40
1
 10
33.351738
 20
33.392030
 30
0.0
 10
33.162044
 20
33.501550
 30
0.0
 10
33.045188
 20
33.703951
 30
0.0
 10
33.045188
 20
33.922991
 30
0.0
  0
SPLINE
  5
148
100
AcDbEntity
  8
Layer_1
 62
7
100
AcDbSpline
 70
8
 71
3
 72
8
 73
4
 74
0
 40
0
 40
0
 40
0
 40
0
 40
1
 40
1
 40
1
 40
1
 10
33.045188
 20
33.922991
 30
0.0
 10
33.045188
 20
34.142031
 30
0.0
 10
33.162044
 20
34.344432
 30
0.0
 10
33.351738
 20
34.453952
 30
0.0
  0
SPLINE
  5
149
100
AcDbEntity
  8
Layer_1
 62
7
100
AcDbSpline
 70
8
 71
3
 72
8
 73
4
 74
0
 40
0
 40
0
 40
0
 40
0
 40
1
 40
1
 40
1
 40
1
 10
33.351738
 20
34.453952
 30
0.0
 10
33.541432
 20
34.563472
 30
0.0
 10
33.775145
 20
34.563472
 30
0.0
 10
33.964839
 20
34.453952
 30
0.0
  0
SPLINE
  5
14a
100
AcDbEntity
  8
Layer_1
 62
7
100
AcDbSpline
 70
8
 71
3
 72
8
 73
4
 74
0
 40
0
 40
0
 40
0
 40
0
 40
1
 40
1
 40
1
 40
1
 10
33.964839
 20
34.453952
 30
0.0
 10
34.154533
 20
34.344432
 30
0.0
 10
34.271390
 20
34.142031
 30
0.0
 10
34.271390
 20
33.922991
 30
0.0
  0
LINE
  5
14b
100
AcDbEntity
  8
Layer_1
 62
7
100
AcDbLine
 10
34.271390
 20
33.922991
 30
0.0
 11
34.271390
 21
33.922991
 31
0.0
  0
LINE
  5
14c
100
AcDbEntity
  8
Layer_1
 62
7
100
AcDbLine
 10
15.976045
 20
51.095831
 30
0.0
 11
39.586455
 21
51.095831
 31
0.0
  0
LINE
  5
14d
100
AcDbEntity
  8
Layer_1
 62
7
100
AcDbLine
 10
39.586455
 20
51.095831
 30
0.0
 11
39.586455
 21
27.485420
 31
0.0
  0
LINE
  5
14e
100
AcDbEntity
  8
Layer_1
 62
7
100
AcDbLine
 10
39.586455
 20
27.485420
 30
0.0
 11
15.976045
 21
27.485420
 31
0.0
  0
LINE
  5
14f
100
AcDbEntity
  8
Layer_1
 62
7
100
AcDbLine
 10
15.976045
 20
27.485420
 30
0.0
 11
15.976045
 21
51.095831
 31
0.0
  0
ENDSEC
  0
SECTION
  2
OBJECTS
  0
DICTIONARY
  5
C
330
0
100
AcDbDictionary
  3
ACAD_GROUP
350
D
  3
ACAD_MLINESTYLE
350
17
  0
DICTIONARY
  5
D
330
C
100
AcDbDictionary
  0
DICTIONARY
  5
1A
330
C
100
AcDbDictionary
  0
DICTIONARY
  5
17
330
C
100
AcDbDictionary
  3
STANDARD
350
18
  0
DICTIONARY
  5
19
330
C
100
AcDbDictionary
  0
ENDSEC
  0
EOF
